# xmcd CD database file
#
# Track frame offsets:
#	150
#	13275
#	30075
#	43424
#
# Disc length: 881 seconds
#
# Revision: 1
# Processed by: cddbd v1.5.1PL2 Copyright (c) Steve Scherf et al.
# Submitted via: CDex 1.51
#
DISCID=2a036f04
DTITLE=Dir en grey - CLEVER SLEAZOID
DYEAR=2005
DGENRE=Rock
TTITLE0=CLEVER SLEAZOID
TTITLE1=C[LIVE]
TTITLE2=GARBAGE[LIVE]
TTITLE3=dead tree[LIVE]
EXTD=YEAR: 2005
EXTT0=
EXTT1=
EXTT2=
EXTT3=
PLAYORDER=
